<svg width="26" height="27" viewBox="0 0 26 27" fill="none" xmlns="http://www.w3.org/2000/svg">
<path d="M11.8164 26.2539C10.832 26.2539 10.082 25.6562 9.85938 24.7305L9.37891 22.6562L9.0625 22.5391L7.25781 23.6523C6.44922 24.168 5.48828 24.0391 4.79688 23.3477L3.15625 21.707C2.46484 21.0156 2.33594 20.0547 2.85156 19.2461L3.97656 17.4531L3.85938 17.1602L1.79688 16.6797C0.871094 16.4453 0.273438 15.6836 0.273438 14.7227V12.4141C0.273438 11.4531 0.859375 10.6914 1.79688 10.457L3.83594 9.96484L3.96484 9.66016L2.83984 7.86719C2.32422 7.05859 2.45312 6.10938 3.14453 5.39453L4.78516 3.75391C5.46484 3.07422 6.42578 2.94531 7.24609 3.44922L9.05078 4.55078L9.37891 4.42188L9.85938 2.34766C10.082 1.42188 10.832 0.824219 11.8164 0.824219H14.1836C15.1562 0.824219 15.918 1.42188 16.1406 2.34766L16.6211 4.42188L16.9492 4.55078L18.7539 3.44922C19.5625 2.94531 20.5234 3.07422 21.2031 3.75391L22.8438 5.39453C23.5352 6.10938 23.6641 7.05859 23.1484 7.86719L22.0352 9.66016L22.1523 9.96484L24.2031 10.457C25.1289 10.6914 25.7266 11.4531 25.7266 12.4141V14.7227C25.7266 15.6836 25.1172 16.4453 24.2031 16.6797L22.1289 17.1602L22.0234 17.4531L23.1367 19.2461C23.6523 20.0547 23.5352 21.0156 22.832 21.707L21.1914 23.3477C20.5117 24.0391 19.5508 24.168 18.7305 23.6523L16.9258 22.5391L16.6211 22.6562L16.1406 24.7305C15.918 25.6562 15.1562 26.2539 14.1836 26.2539H11.8164ZM12.0977 24.1328H13.9023C14.1016 24.1328 14.1953 24.0508 14.2188 23.8633L14.9219 20.9805C15.6953 20.8047 16.3633 20.5117 16.9375 20.1484L19.4688 21.707C19.6094 21.8008 19.75 21.7891 19.9023 21.6484L21.1445 20.3945C21.2734 20.2773 21.2734 20.1367 21.1797 19.9844L19.6328 17.4531C19.9492 16.9023 20.2656 16.1992 20.4414 15.4609L23.3359 14.7695C23.5117 14.7344 23.6055 14.6406 23.6055 14.4414V12.6836C23.6055 12.4727 23.5234 12.3906 23.3359 12.3438L20.4531 11.6641C20.2773 10.8789 19.9258 10.1523 19.6445 9.64844L21.1914 7.12891C21.2969 6.96484 21.2969 6.82422 21.1562 6.69531L19.9023 5.46484C19.7617 5.32422 19.6445 5.3125 19.4688 5.40625L16.9492 6.94141C16.375 6.61328 15.6836 6.29688 14.9219 6.12109L14.2188 3.21484C14.1953 3.02734 14.1016 2.94531 13.9023 2.94531H12.0977C11.8984 2.94531 11.8047 3.03906 11.7695 3.21484L11.0781 6.09766C10.3398 6.28516 9.56641 6.61328 9.03906 6.92969L6.51953 5.39453C6.34375 5.30078 6.22656 5.32422 6.07422 5.45312L4.83203 6.68359C4.69141 6.82422 4.69141 6.96484 4.79688 7.12891L6.34375 9.64844C6.0625 10.1523 5.72266 10.8789 5.54688 11.6641L2.65234 12.3438C2.47656 12.3906 2.39453 12.4727 2.39453 12.6836V14.4414C2.39453 14.6406 2.47656 14.7344 2.65234 14.7695L5.54688 15.4609C5.72266 16.1992 6.03906 16.9023 6.36719 17.4531L4.80859 19.9844C4.70312 20.1367 4.71484 20.2773 4.84375 20.4062L6.08594 21.6484C6.23828 21.7891 6.37891 21.8008 6.51953 21.707L9.05078 20.1484C9.625 20.5117 10.3281 20.8047 11.0781 20.9805L11.7695 23.8633C11.8047 24.0391 11.8984 24.1328 12.0977 24.1328ZM13 17.9922C10.5508 17.9922 8.54688 15.9883 8.54688 13.5391C8.54688 11.1133 10.5625 9.10938 13 9.10938C15.4375 9.10938 17.4414 11.1133 17.4414 13.5391C17.4414 15.9883 15.4375 17.9922 13 17.9922ZM13 15.9883C14.3125 15.9883 15.4023 14.875 15.4023 13.5391C15.4023 12.2148 14.3125 11.125 13 11.125C11.6641 11.125 10.5625 12.2148 10.5625 13.5391C10.5625 14.8867 11.6641 15.9883 13 15.9883Z" fill="white"/>
</svg>
