<svg width="67" height="40" viewBox="0 0 67 40" fill="none" xmlns="http://www.w3.org/2000/svg">
<path d="M18.8755 3.07619C18.3107 1.29691 16.6546 0.0901016 14.6549 0.00500595C12.7011 -0.0800897 10.9915 0.925587 10.3123 2.57335C8.93084 5.90755 11.8921 7.67135 13.0064 8.33664C14.6702 9.32685 16.2577 11.0984 15.7387 13.0865C15.09 15.5852 12.3042 16.1732 9.83143 15.6394C9.22849 15.5079 8.67135 15.3222 8.16763 15.0824C8.15236 15.0747 8.1371 15.0669 8.12183 15.0592C6.81674 14.4403 5.83219 13.4811 5.3361 12.2975C5.3361 12.2897 5.32847 12.2897 5.32847 12.282C4.9316 11.3769 4.84765 10.1314 4.84765 10.1159C4.80949 9.52025 4.30577 9.07156 3.71809 9.11024C3.13042 9.14892 2.68776 9.65949 2.71829 10.2552C2.71829 10.3093 2.78697 11.3073 3.08463 12.3439C3.08463 12.3439 3.08463 12.3439 3.08463 12.3516C3.08463 12.3516 3.52729 13.7209 4.03864 14.3784C4.0768 14.4326 4.10733 14.479 4.14549 14.5332C4.61868 15.1907 5.21399 15.7709 5.90851 16.2583C5.90851 16.2583 7.39678 17.3955 9.35824 17.8209C10.0604 17.9757 10.7931 17.9757 11.48 17.9757C12.5179 17.9757 13.5101 17.8055 14.3802 17.4573C16.1432 16.7611 17.3262 15.4383 17.7994 13.6358C18.3413 11.5625 17.6467 8.59193 14.0902 6.47227C11.8082 5.11074 11.9303 4.24432 12.2737 3.40883C12.6782 2.4341 13.7543 2.13239 14.5557 2.16334C15.8913 2.22523 16.6164 3.0143 16.8454 3.73374C17.0285 4.29847 17.6238 4.61564 18.181 4.42998C18.7458 4.25205 19.0587 3.64865 18.8755 3.07619Z" fill="#393939"/>
<path d="M65.6077 9.15638C65.0429 8.97846 64.4476 9.28789 64.272 9.86035C62.9364 14.1383 60.0667 16.0723 58.0442 15.732C57.6397 15.6623 57.2657 15.5076 56.9376 15.2755C57.1436 15.0357 57.3497 14.7882 57.5405 14.5406C57.8305 14.177 58.1053 13.8057 58.3648 13.4344C59.3951 11.9568 61.0818 9.13318 60.7613 6.85107C60.5781 5.50501 59.7233 4.53027 58.3571 4.128C57.3192 3.81856 56.243 4.0197 55.3272 4.69273C53.9458 5.71388 53.0833 7.67108 53.0223 9.92225C52.9612 12.2044 53.3963 13.9295 54.0984 15.1827C53.3505 15.9176 52.6025 16.5442 51.908 16.9929C50.7861 17.7124 50.2595 17.6814 50.1831 17.635C49.4733 17.1631 48.9544 16.0337 48.9162 14.4633C48.8933 13.5814 49.0154 12.5679 49.3436 11.4617C49.4962 10.9357 49.2367 10.3787 48.7483 10.1621C48.2522 9.94545 47.6798 10.1389 47.405 10.6107C47.2371 10.9047 47.0769 11.1909 46.9166 11.4694C45.4665 14.0533 44.5048 15.7629 40.5514 17.5267C40.2385 17.666 40.0095 17.9444 39.9408 18.2848C39.8645 18.6252 39.9561 18.9733 40.185 19.2286C42.4441 21.8202 42.7342 23.731 42.2991 24.5819C42.032 25.108 41.513 25.1312 41.2306 25.1002C39.7805 24.9378 38.8036 22.5396 38.5594 18.9037C38.8952 18.5014 39.2158 18.076 39.5134 17.6505C39.6661 17.4339 39.8111 17.2173 39.9484 17.0007C42.3984 13.1946 45.413 6.13162 44.108 3.0527C43.7645 2.24816 43.131 1.71438 42.322 1.5674C42.261 1.55966 42.2076 1.55193 42.1465 1.55193C42.1312 1.55193 42.116 1.55193 42.1083 1.55193C38.2694 1.55193 36.7201 10.2007 36.4377 14.7882C36.3766 15.7552 36.3461 16.9156 36.3842 18.1456C34.9418 19.7392 33.5451 20.6598 33.0261 20.5437C33.0185 20.5437 33.0032 20.536 32.9956 20.536C32.0034 20.3503 31.431 19.1435 31.1257 18.1688C30.9731 17.6969 30.8586 17.1786 30.767 16.6293C30.912 16.4669 31.057 16.3044 31.202 16.1342C31.3547 15.9563 31.4997 15.7706 31.6523 15.585C33.6061 13.0863 35.1555 9.95319 35.7431 7.26107C36.6972 2.91346 34.7128 1.83815 33.8122 1.58287C33.3009 1.43588 32.2934 1.34305 31.2783 2.39514C29.21 4.55348 28.0423 10.9279 28.5308 15.848C26.867 17.4803 25.02 18.4937 23.3257 18.2152C22.3564 18.0605 21.6466 17.5809 21.1963 16.784C21.5169 16.6603 21.8374 16.5133 22.1503 16.3431C24.2492 15.2369 26.2259 13.2487 26.928 11.3611C27.4165 10.0383 27.2867 8.78506 26.5541 7.8258C26.0122 7.12182 25.1421 6.68088 24.1576 6.63446C22.9899 6.57257 21.8527 7.06767 20.9597 8.0192C18.8532 10.2704 17.9679 14.061 18.8914 16.8382C19.5401 18.7722 20.9902 20.0177 22.9822 20.3426C24.8979 20.652 26.9662 19.9481 28.9582 18.339C29.004 18.5014 29.0421 18.6562 29.0956 18.8109C29.9656 21.5881 31.4768 22.4313 32.5911 22.6479C33.7054 22.88 35.0562 22.3075 36.6056 20.9383C36.6132 20.9305 36.6285 20.9228 36.6361 20.9151C36.7277 21.5417 36.8574 22.1605 37.0177 22.7562C37.9565 26.2065 39.6966 27.1038 41.0017 27.2431C41.1314 27.2586 41.2612 27.2663 41.3909 27.2663C42.5892 27.2663 43.6424 26.6397 44.1919 25.5721C44.6346 24.7134 45.2833 22.4313 42.6655 18.896C44.6727 17.8439 45.932 16.7222 46.8784 15.5308C46.9242 15.8867 46.9929 16.2348 47.0845 16.5752C47.4127 17.7665 48.0309 18.7954 49.0231 19.453C50.0229 20.1182 51.3814 19.9016 53.0528 18.8263C53.8237 18.3312 54.6556 17.6505 55.4722 16.8537C56.1591 17.4184 56.9299 17.7433 57.6931 17.8748C59.3493 18.1533 61.12 17.5963 62.6846 16.2889C64.2873 14.9506 65.539 12.9625 66.3022 10.5257C66.4777 9.94545 66.1648 9.34205 65.6077 9.15638ZM22.509 9.51224C23.0814 8.90109 23.6538 8.79279 23.982 8.79279C24.0049 8.79279 24.0355 8.79279 24.0584 8.79279C24.4705 8.816 24.7529 8.99393 24.875 9.14865C24.9742 9.28016 25.2795 9.67469 24.936 10.5953C24.501 11.7557 23.2951 13.0553 21.9519 13.9527C21.5321 14.2389 21.0971 14.4787 20.6697 14.6644C20.6086 12.8696 21.3108 10.7964 22.509 9.51224ZM30.5457 13.4653C30.5609 9.51224 31.5378 5.22651 32.82 3.88819C32.9116 3.78762 33.0795 3.64064 33.2016 3.64064C33.2169 3.64064 33.2245 3.64064 33.2398 3.64837C34.0183 3.87272 33.9725 5.41991 33.6748 6.78144C33.3467 8.28995 32.6521 9.99187 31.7286 11.6164C31.3623 12.2508 30.9654 12.8696 30.5457 13.4653ZM38.567 14.9197C38.7502 11.9645 39.2997 9.0094 40.0782 6.82012C40.8872 4.54574 41.658 3.81857 42.032 3.718C42.0702 3.74121 42.1083 3.79535 42.1541 3.90366C42.4136 4.52254 42.3831 6.13936 41.5054 8.82374C41.0475 10.2085 40.4369 11.6706 39.7347 13.063C39.3608 13.8057 38.9639 14.5251 38.5518 15.2136C38.5594 15.1131 38.567 15.0202 38.567 14.9197ZM55.1593 9.97639C55.2051 8.10429 55.9301 6.92069 56.5865 6.43332C56.8536 6.23992 57.1284 6.13936 57.4031 6.13936C57.5176 6.13936 57.6397 6.15483 57.7542 6.19351C58.4564 6.40238 58.6014 6.77371 58.6472 7.14503C58.7998 8.25128 58.0442 10.1388 56.617 12.1811C56.5789 12.243 56.5331 12.2972 56.4873 12.3591C56.2201 12.7381 55.9301 13.1095 55.6401 13.4731C55.2967 12.5525 55.1288 11.3611 55.1593 9.97639Z" fill="#393939"/>
<path d="M50.3646 7.66119C50.5018 6.90484 50.0719 6.19088 49.4045 6.06651C48.737 5.94214 48.0848 6.45447 47.9476 7.21082C47.8104 7.96718 48.2403 8.68114 48.9077 8.80551C49.5752 8.92987 50.2274 8.41755 50.3646 7.66119Z" fill="#1E1E1E"/>
<path d="M11.2616 13.6736C11.3226 13.72 11.3913 13.7586 11.4524 13.7896C11.9026 13.9907 12.4445 13.8515 12.7422 13.4337L13.2764 12.6833C13.6199 12.2037 13.513 11.5229 13.0398 11.1748C12.5666 10.8267 11.895 10.935 11.5516 11.4146L11.0173 12.165C10.6739 12.6447 10.7807 13.3254 11.2616 13.6736Z" fill="#393939"/>
<path d="M7.24046 10.4868C7.30152 10.5332 7.3702 10.5719 7.43126 10.6028C7.88156 10.804 8.42344 10.6647 8.72109 10.247L9.25534 9.49658C9.59879 9.01695 9.49194 8.33618 9.01875 7.98806C8.54555 7.63994 7.87393 7.74825 7.53048 8.22788L6.99623 8.97827C6.66042 9.4579 6.76727 10.1387 7.24046 10.4868Z" fill="#393939"/>
<path d="M21.1519 24.736C21.4954 23.9547 21.5106 23.1501 21.2053 22.4229C20.1674 19.932 17.1298 19.0114 12.1765 19.6689C8.80313 20.1176 5.73501 21.1465 5.60527 21.1852C5.00996 21.3863 4.68178 22.0361 4.88021 22.6473C5.07865 23.2507 5.71975 23.5833 6.32269 23.3822C7.81858 22.8794 10.0319 22.3069 12.1994 21.9975C11.4744 24.6432 9.88689 30.8938 9.19237 36.9201C8.25362 36.6417 7.37592 36.2394 6.64324 35.7133C6.13188 35.3497 5.41446 35.4735 5.05575 35.9918C4.68941 36.5101 4.81916 37.2373 5.33051 37.6009C7.23854 38.9624 9.78767 39.6819 12.3292 39.6819C13.8403 39.6819 15.3515 39.4266 16.7176 38.9006C19.1294 37.9722 20.7321 36.309 21.2206 34.2203C21.5411 32.8588 21.6327 30.948 20.259 29.5787C19.5186 28.8438 18.5112 28.4338 17.4351 28.2326C19.4194 27.049 20.6482 25.8964 21.1519 24.736ZM18.6562 31.2265C18.8394 31.4121 19.4042 31.9691 18.9997 33.6865C18.5875 35.4658 16.8856 36.3632 15.9086 36.7345C14.5425 37.2605 12.9703 37.4462 11.4362 37.3301C11.6881 35.1022 12.0773 32.8201 12.4971 30.7004C13.039 30.5921 13.848 30.4606 14.7409 30.4065C16.6184 30.2904 18.0075 30.5844 18.6562 31.2265ZM19.0683 23.7999C18.8852 24.2177 18.122 25.3549 14.8707 27.0104C14.2525 27.3275 13.6419 27.606 13.1 27.8459C13.7487 24.9526 14.3746 22.6782 14.6264 21.7731C16.794 21.7112 18.5952 22.0903 19.1065 23.3126C19.1523 23.4209 19.1752 23.5524 19.0683 23.7999Z" fill="#393939"/>
<path d="M65.9526 36.2713C65.0902 35.6137 64.4033 36.5575 64.3193 36.6736C64.3193 36.6813 64.3117 36.6813 64.3117 36.689C63.9224 37.2538 63.4645 37.4858 63.1058 37.4162C62.7318 37.3389 62.541 36.9366 62.6097 36.3873C62.6326 36.1939 62.6631 35.9696 62.7013 35.7298C62.8463 34.7318 63.0371 33.3703 62.915 32.1867C62.686 29.8582 61.3199 29.3012 60.5261 29.1697C58.6105 28.868 56.8475 30.3378 55.2753 33.5405C55.2676 33.0377 55.2676 32.5193 55.2676 31.9933C55.6263 31.4827 55.985 30.9489 56.3361 30.4152C58.0533 27.8236 59.6408 25.0928 59.969 23.7622C60.6025 21.1707 59.7324 19.8865 59.1524 19.345C58.3968 18.641 57.3359 18.4399 56.3132 18.7957C54.9852 19.2599 54.0312 20.5286 53.7565 22.1764C53.3367 24.7138 53.1764 28.1176 53.1459 31.2816C53.123 31.3203 53.1001 31.3512 53.0696 31.3899C51.7721 33.2001 50.5357 34.7705 49.4825 35.9232C48.4827 37.0139 47.8797 37.4858 47.5515 37.687C47.376 37.0139 47.1623 35.1883 47.6736 30.4384C47.6813 30.3455 47.6889 30.2604 47.7042 30.1676C49.2001 29.5101 50.6578 28.5431 51.6118 27.0964C51.94 26.6013 51.8103 25.9283 51.3218 25.5957C50.8333 25.263 50.1694 25.3945 49.8412 25.8896C49.3832 26.5781 48.7498 27.1351 48.0324 27.5761C48.33 25.3636 48.6277 23.7003 48.6277 23.6771C48.7345 23.0892 48.3453 22.5322 47.7652 22.4239C47.1852 22.3156 46.6357 22.7101 46.5288 23.2981C46.5212 23.329 46.1014 25.7194 45.7427 28.6049C43.7889 29.2393 41.9801 29.3476 41.9496 29.3476H41.9419C41.919 29.3476 41.8885 29.3553 41.8656 29.3553C41.8503 29.3553 41.8427 29.3553 41.8351 29.3553C41.8122 29.3553 41.7969 29.3631 41.774 29.3708C41.7587 29.3708 41.7435 29.3785 41.7282 29.3785C41.713 29.3785 41.7053 29.3863 41.6901 29.394C41.6672 29.4017 41.6519 29.4095 41.629 29.4172C41.6214 29.4172 41.6137 29.425 41.6061 29.4327C41.5832 29.4404 41.5603 29.4559 41.5374 29.4636C41.5374 29.4636 41.5374 29.4636 41.5298 29.4636C41.5222 29.4714 41.5145 29.4714 41.5069 29.4791C41.484 29.4946 41.4687 29.5023 41.4458 29.5178C41.4306 29.5255 41.4229 29.5333 41.4077 29.541C41.3924 29.5487 41.3771 29.5642 41.3619 29.5719C41.3466 29.5874 41.3313 29.5951 41.3161 29.6106C41.3085 29.6184 41.2932 29.6338 41.2856 29.6416C41.2703 29.657 41.255 29.6725 41.2398 29.688C41.2321 29.6957 41.2245 29.7112 41.2092 29.7189C41.194 29.7344 41.1863 29.7499 41.1711 29.7653C41.1634 29.7808 41.1558 29.7885 41.1482 29.804C41.1329 29.8195 41.1253 29.835 41.1176 29.8504C41.11 29.8659 41.1024 29.8736 41.0948 29.8891C41.0871 29.9046 41.0795 29.9201 41.0719 29.9355C41.0642 29.951 41.0566 29.9665 41.049 29.9897C41.0413 30.0052 41.0337 30.0129 41.0337 30.0284C41.0261 30.0438 41.0184 30.067 41.0108 30.0825C41.0032 30.098 41.0032 30.1057 40.9955 30.1212C40.9879 30.1444 40.9803 30.1599 40.9803 30.1831C40.9803 30.1986 40.9726 30.214 40.9726 30.2295C40.9726 30.245 40.965 30.2682 40.965 30.2836C40.965 30.2991 40.965 30.3223 40.9574 30.3378C40.9574 30.3533 40.9574 30.3687 40.9497 30.3842V30.4538C40.9497 30.4616 40.9497 30.4693 40.9497 30.477V30.4848C40.9497 30.508 40.9497 30.5312 40.9574 30.5544C40.9574 30.5699 40.9574 30.5776 40.9574 30.5931C40.9574 30.6163 40.965 30.6318 40.9726 30.6472C40.9726 30.6627 40.9803 30.6782 40.9879 30.6937C40.9879 30.7091 40.9955 30.7246 41.0032 30.7323C41.0108 30.7555 41.0184 30.771 41.0261 30.7942C41.0337 30.802 41.0337 30.8174 41.0413 30.8252C41.049 30.8484 41.0566 30.8716 41.0719 30.8948C41.0719 30.9025 41.0719 30.9025 41.0795 30.9103C41.484 31.7225 41.6672 32.7746 41.5908 33.8654C41.5069 35.0103 41.1405 36.0934 40.5834 36.836C40.3163 37.1996 39.7515 37.7953 39.057 37.7411C38.3624 37.687 37.8893 37.0217 37.6756 36.6271C37.2253 35.8071 37.0116 34.6854 37.0955 33.5405C37.21 31.9237 37.874 30.5003 38.7898 29.9046C39.2859 29.5797 39.4309 28.9144 39.1104 28.4115C38.7898 27.9087 38.1335 27.7617 37.6374 28.0866C36.3705 28.9066 35.4393 30.5003 35.0883 32.3878C34.493 34.0279 33.5924 35.1805 32.6231 35.9773C33.1421 34.7937 33.4931 33.4167 33.6 31.9082C33.7526 29.7267 33.371 27.6302 32.5162 25.9902C31.5775 24.1877 30.1808 23.1279 28.5857 23.0118C25.4413 22.7875 22.709 26.3306 22.3731 31.0959C22.0373 35.8226 24.2048 39.6983 27.3188 39.9846C27.3264 39.9846 27.334 39.9846 27.3417 39.9846C27.3569 39.9846 27.3722 39.9923 27.3874 39.9923C27.4027 39.9923 27.4103 39.9923 27.418 39.9923C27.4256 39.9923 27.4256 39.9923 27.4332 39.9923H27.4638C27.5325 40 27.6011 40 27.6698 40C27.7767 40 27.8759 40 27.9751 39.9846C28.082 39.9768 28.1812 39.9613 28.2804 39.9459C28.3033 39.9459 28.3262 39.9459 28.3491 39.9381C29.0741 39.8608 30.1503 39.6751 31.3256 39.2032C32.5391 38.7159 34.0121 37.8572 35.2562 36.3564C35.3936 36.8283 35.5767 37.2692 35.7981 37.6792C36.5231 39.0021 37.6527 39.8066 38.8891 39.8995C38.9654 39.9072 39.0417 39.9072 39.118 39.9072C40.2705 39.9072 41.4077 39.2728 42.2548 38.1434C43.0715 37.0526 43.5828 35.5905 43.6973 34.0201C43.766 33.0995 43.682 32.1867 43.476 31.3512C44.0408 31.2661 44.7353 31.1346 45.4909 30.9335C44.8955 36.983 45.4603 38.623 46.0251 39.3657C46.4143 39.884 47.0249 40.0929 47.7042 39.9536C48.9329 39.6906 50.7799 37.9809 53.1917 34.8556C53.2298 36.5807 53.2985 38.0506 53.3672 39.0021C53.4054 39.5281 53.8099 39.9536 54.3289 40C54.367 40 54.3975 40 54.4281 40C54.9013 40 55.3287 39.6751 55.4584 39.2032C55.466 39.18 56.0614 36.9366 57.0612 34.8092C58.1602 32.4729 59.3432 31.1578 60.2285 31.2971C60.404 31.328 60.7246 31.3744 60.8314 32.3956C60.923 33.3162 60.7551 34.4765 60.6254 35.4126C60.5872 35.6679 60.5567 35.9 60.5261 36.1166C60.3277 37.7798 61.2436 39.2187 62.7089 39.5281C63.5714 39.7138 64.4643 39.474 65.2275 38.8706C65.4565 38.6926 65.6702 38.4838 65.861 38.2362C65.861 38.2362 65.861 38.2362 65.861 38.2285C65.8992 38.1434 66.8761 36.9753 65.9526 36.2713ZM55.8477 22.5399C56.0156 21.5265 56.5498 20.9928 57.0001 20.838C57.0764 20.8148 57.1833 20.7839 57.2978 20.7839C57.4351 20.7839 57.5801 20.8226 57.7099 20.9386C58.0075 21.2094 58.2136 21.9597 57.9007 23.2439C57.7938 23.7003 57.3436 24.6287 56.649 25.8509C56.2827 26.493 55.8477 27.2202 55.3516 28.0015C55.4279 26.0211 55.5882 24.1026 55.8477 22.5399ZM31.4401 31.769C31.318 33.5482 30.7837 35.1805 29.9366 36.3564C29.5702 36.8747 28.8528 37.6792 27.937 37.834C27.7156 37.8494 27.5554 37.8494 27.4867 37.8494C26.3724 37.7566 25.6473 36.6658 25.3039 36.0237C24.6399 34.7396 24.3346 33.0454 24.4643 31.2661C24.5941 29.4868 25.1207 27.8546 25.9679 26.6787C26.38 26.1062 27.2043 25.1779 28.2651 25.1779C28.3109 25.1779 28.3491 25.1779 28.3949 25.1856C29.5244 25.263 30.2571 26.3693 30.5929 27.0191C31.2646 28.2955 31.5622 29.982 31.4401 31.769Z" fill="#393939"/>
<path d="M4.14884 14.5319C4.11068 14.478 4.07252 14.4318 4.04199 14.3779C4.08015 14.4241 4.11831 14.478 4.14884 14.5319Z" fill="#1E1E1E"/>
<path d="M2.70465 13.7991C2.65122 13.6289 2.44515 13.5748 2.31541 13.6986C1.58272 14.4489 0.766087 15.5088 0.659237 16.6846C0.59818 17.3577 0.796614 17.9843 1.23928 18.4871C1.75063 19.0751 2.42989 19.3922 3.20074 19.4H3.22363C4.39898 19.4 5.55143 18.7115 6.4215 18.023C6.55887 17.9147 6.53598 17.6981 6.3757 17.6207C5.52854 17.2107 3.33811 15.9729 2.70465 13.7991Z" fill="#FF3875"/>
</svg>

