<svg width="22" height="26" viewBox="0 0 22 26" fill="none" xmlns="http://www.w3.org/2000/svg">
<path d="M0.535156 15.3711C0.535156 9.57031 5.17578 4.92969 10.9648 4.92969C11.5742 4.92969 12.1719 4.98828 12.6875 5.09375L9.85156 2.29297C9.65234 2.08203 9.54688 1.8125 9.54688 1.50781C9.54688 0.875 10.0273 0.359375 10.6602 0.359375C10.9883 0.359375 11.2578 0.476562 11.457 0.699219L16.2734 5.58594C16.5078 5.82031 16.6367 6.125 16.6367 6.42969C16.6367 6.74609 16.5195 7.02734 16.2734 7.27344L11.457 12.125C11.2578 12.3359 10.9883 12.4414 10.6602 12.4414C10.0273 12.4414 9.54688 11.9492 9.54688 11.3047C9.54688 11 9.65234 10.7539 9.86328 10.5312L13.0508 7.36719C12.4531 7.23828 11.7383 7.17969 10.9648 7.17969C6.44141 7.17969 2.83203 10.8008 2.83203 15.3711C2.83203 19.918 6.46484 23.5625 11 23.5625C15.5352 23.5625 19.1797 19.918 19.1797 15.3711C19.1797 14.6797 19.625 14.1875 20.293 14.1875C20.9844 14.1875 21.4648 14.6797 21.4648 15.3711C21.4648 21.1836 16.8008 25.8594 11 25.8594C5.19922 25.8594 0.535156 21.1836 0.535156 15.3711Z" fill="white"/>
</svg>
