<svg width="64" height="40" viewBox="0 0 64 40" fill="none" xmlns="http://www.w3.org/2000/svg">
<path d="M17.7541 3.07618C17.204 1.29691 15.5909 0.0901016 13.6433 0.00500595C11.7403 -0.0800897 10.0751 0.925587 9.41353 2.57335C8.06805 5.90755 10.9523 7.67135 12.0376 8.33664C13.6581 9.32684 15.2043 11.0984 14.6988 13.0865C14.067 15.5852 11.3537 16.1732 8.94521 15.6394C8.35796 15.5079 7.8153 15.3222 7.32468 15.0824C7.30982 15.0747 7.29495 15.0669 7.28008 15.0592C6.00893 14.4403 5.04999 13.4811 4.56681 12.2975C4.56681 12.2897 4.55937 12.2897 4.55937 12.282C4.17282 11.3769 4.09106 10.1314 4.09106 10.1159C4.05389 9.52024 3.56327 9.07156 2.99088 9.11024C2.41849 9.14892 1.98734 9.65949 2.01707 10.2552C2.01707 10.3093 2.08398 11.3072 2.37389 12.3439C2.37389 12.3439 2.37389 12.3439 2.37389 12.3516C2.37389 12.3516 2.80504 13.7209 3.30309 14.3784C3.34026 14.4326 3.36999 14.479 3.40716 14.5331C3.86805 15.1907 4.44787 15.7709 5.12433 16.2583C5.12433 16.2583 6.57389 17.3955 8.48433 17.8209C9.16822 17.9756 9.88185 17.9756 10.5509 17.9756C11.5618 17.9756 12.5282 17.8055 13.3757 17.4573C15.0928 16.7611 16.245 15.4383 16.7059 13.6358C17.2337 11.5625 16.5572 8.59192 13.0932 6.47227C10.8705 5.11074 10.9895 4.24431 11.324 3.40883C11.718 2.4341 12.7661 2.13239 13.5466 2.16334C14.8475 2.22522 15.5537 3.0143 15.7767 3.73374C15.9551 4.29847 16.5349 4.61564 17.0776 4.42998C17.6277 4.25205 17.9325 3.64865 17.7541 3.07618Z" fill="white"/>
<path d="M63.2777 9.15638C62.7276 8.97845 62.1478 9.28789 61.9768 9.86035C60.6759 14.1383 57.8809 16.0723 55.911 15.7319C55.517 15.6623 55.1527 15.5076 54.8331 15.2755C55.0338 15.0357 55.2345 14.7882 55.4203 14.5406C55.7028 14.177 55.9704 13.8057 56.2232 13.4344C57.2267 11.9568 58.8695 9.13317 58.5573 6.85106C58.3789 5.505 57.5464 4.53027 56.2157 4.128C55.2048 3.81856 54.1566 4.0197 53.2646 4.69273C51.9191 5.71387 51.0791 7.67108 51.0196 9.92224C50.9602 12.2044 51.3839 13.9295 52.0678 15.1827C51.3393 15.9176 50.6108 16.5442 49.9343 16.9929C48.8416 17.7124 48.3287 17.6814 48.2543 17.635C47.563 17.1631 47.0575 16.0337 47.0203 14.4633C46.998 13.5814 47.117 12.5679 47.4366 11.4617C47.5853 10.9357 47.3326 10.3787 46.8568 10.1621C46.3736 9.94545 45.8161 10.1388 45.5485 10.6107C45.385 10.9047 45.2288 11.1909 45.0727 11.4694C43.6603 14.0532 42.7237 15.7629 38.8731 17.5267C38.5683 17.6659 38.3453 17.9444 38.2784 18.2848C38.2041 18.6252 38.2933 18.9733 38.5163 19.2286C40.7166 21.8202 40.9991 23.7309 40.5754 24.5819C40.3152 25.1079 39.8097 25.1311 39.5347 25.1002C38.1223 24.9377 37.1708 22.5396 36.9329 18.9037C37.26 18.5014 37.5722 18.0759 37.8621 17.6505C38.0108 17.4339 38.152 17.2173 38.2858 17.0007C40.672 13.1946 43.6083 6.13162 42.3372 3.0527C42.0026 2.24816 41.3857 1.71438 40.5977 1.5674C40.5382 1.55966 40.4862 1.55193 40.4267 1.55193C40.4119 1.55193 40.397 1.55193 40.3896 1.55193C36.6504 1.55193 35.1414 10.2007 34.8664 14.7882C34.8069 15.7552 34.7772 16.9156 34.8143 18.1456C33.4094 19.7392 32.049 20.6598 31.5435 20.5437C31.5361 20.5437 31.5212 20.536 31.5138 20.536C30.5474 20.3503 29.9899 19.1435 29.6926 18.1688C29.5439 17.6969 29.4324 17.1786 29.3432 16.6293C29.4844 16.4669 29.6257 16.3044 29.7669 16.1342C29.9156 15.9563 30.0568 15.7706 30.2055 15.585C32.1085 13.0862 33.6175 9.95318 34.1899 7.26107C35.1191 2.91346 33.1864 1.83815 32.3092 1.58287C31.8111 1.43588 30.8299 1.34305 29.8412 2.39514C27.8267 4.55348 26.6894 10.9279 27.1651 15.848C25.5446 17.4803 23.7457 18.4937 22.0954 18.2152C21.1513 18.0605 20.46 17.5808 20.0214 16.784C20.3336 16.6603 20.6458 16.5133 20.9506 16.3431C22.9949 15.2369 24.9202 13.2487 25.6041 11.3611C26.0798 10.0383 25.9535 8.78505 25.2398 7.82579C24.712 7.12182 23.8646 6.68087 22.9057 6.63446C21.7683 6.57257 20.6607 7.06767 19.791 8.01919C17.7393 10.2704 16.877 14.061 17.7765 16.8382C18.4083 18.7722 19.8207 20.0177 21.7609 20.3426C23.6267 20.652 25.6412 19.9481 27.5814 18.339C27.626 18.5014 27.6632 18.6561 27.7152 18.8109C28.5627 21.5881 30.0345 22.4313 31.1198 22.6479C32.2051 22.88 33.5209 22.3075 35.0299 20.9383C35.0373 20.9305 35.0522 20.9228 35.0596 20.915C35.1488 21.5417 35.2752 22.1605 35.4313 22.7562C36.3457 26.2064 38.0405 27.1038 39.3117 27.2431C39.438 27.2585 39.5644 27.2663 39.6908 27.2663C40.8579 27.2663 41.8837 26.6397 42.4189 25.5721C42.8501 24.7134 43.4819 22.4313 40.9322 18.896C42.8872 17.8439 44.1138 16.7222 45.0356 15.5308C45.0802 15.8867 45.1471 16.2348 45.2363 16.5752C45.5559 17.7665 46.158 18.7954 47.1244 19.4529C48.0982 20.1182 49.4214 19.9016 51.0494 18.8263C51.8002 18.3312 52.6104 17.6505 53.4058 16.8537C54.0749 17.4184 54.8257 17.7433 55.569 17.8748C57.1821 18.1533 58.9067 17.5963 60.4306 16.2889C61.9917 14.9506 63.2108 12.9625 63.9542 10.5256C64.1251 9.94545 63.8203 9.34204 63.2777 9.15638ZM21.3 9.51223C21.8575 8.90109 22.415 8.79279 22.7347 8.79279C22.757 8.79279 22.7867 8.79279 22.809 8.79279C23.2104 8.816 23.4855 8.99393 23.6044 9.14865C23.7011 9.28016 23.9984 9.67469 23.6639 10.5953C23.2402 11.7557 22.0657 13.0553 20.7573 13.9527C20.3485 14.2389 19.9248 14.4787 19.5085 14.6644C19.449 12.8696 20.1329 10.7964 21.3 9.51223ZM29.1276 13.4653C29.1425 9.51223 30.094 5.22651 31.3428 3.88819C31.432 3.78762 31.5956 3.64064 31.7145 3.64064C31.7294 3.64064 31.7368 3.64064 31.7517 3.64837C32.5099 3.87271 32.4653 5.41991 32.1754 6.78144C31.8557 8.28995 31.1793 9.99186 30.2798 11.6164C29.923 12.2508 29.5365 12.8696 29.1276 13.4653ZM36.9404 14.9197C37.1188 11.9645 37.654 9.0094 38.4122 6.82012C39.2002 4.54574 39.951 3.81856 40.3152 3.718C40.3524 3.7412 40.3896 3.79535 40.4342 3.90366C40.6869 4.52253 40.6572 6.13935 39.8023 8.82373C39.3563 10.2085 38.7616 11.6706 38.0777 13.063C37.7134 13.8057 37.3269 14.5251 36.9255 15.2136C36.9329 15.1131 36.9404 15.0202 36.9404 14.9197ZM53.1011 9.97639C53.1457 8.10429 53.8518 6.92068 54.4911 6.43332C54.7513 6.23992 55.0189 6.13935 55.2865 6.13935C55.398 6.13935 55.517 6.15483 55.6285 6.19351C56.3124 6.40238 56.4536 6.7737 56.4982 7.14503C56.6469 8.25127 55.911 10.1388 54.5209 12.1811C54.4837 12.243 54.4391 12.2972 54.3945 12.3591C54.1343 12.7381 53.8518 13.1095 53.5694 13.473C53.2349 12.5525 53.0713 11.3611 53.1011 9.97639Z" fill="white"/>
<path d="M48.4205 7.66099C48.5541 6.90463 48.1354 6.19066 47.4852 6.06628C46.8351 5.9419 46.1997 6.45422 46.0661 7.21058C45.9325 7.96693 46.3513 8.68091 47.0014 8.80528C47.6515 8.92966 48.2869 8.41734 48.4205 7.66099Z" fill="white"/>
<path d="M10.332 13.6735C10.3915 13.72 10.4584 13.7586 10.5179 13.7896C10.9565 13.9907 11.4844 13.8515 11.7743 13.4337L12.2947 12.6833C12.6293 12.2037 12.5252 11.5229 12.0642 11.1748C11.6033 10.8267 10.9491 10.935 10.6146 11.4146L10.0941 12.165C9.7596 12.6447 9.86368 13.3254 10.332 13.6735Z" fill="white"/>
<path d="M6.42047 10.4868C6.47995 10.5332 6.54686 10.5719 6.60633 10.6028C7.04496 10.804 7.5728 10.6647 7.86274 10.247L8.38314 9.49658C8.71769 9.01695 8.61361 8.33618 8.15268 7.98806C7.69175 7.63994 7.03752 7.74825 6.70298 8.22788L6.18257 8.97827C5.85546 9.45789 5.95954 10.1387 6.42047 10.4868Z" fill="white"/>
<path d="M19.9674 24.736C20.3019 23.9547 20.3168 23.1501 20.0195 22.4229C19.0085 19.932 16.0499 19.0114 11.2255 19.6689C7.93983 20.1176 4.95151 21.1465 4.82514 21.1852C4.24531 21.3863 3.92567 22.0361 4.11894 22.6473C4.31222 23.2507 4.93664 23.5833 5.5239 23.3822C6.98089 22.8794 9.13664 22.3069 11.2478 21.9975C10.5416 24.6432 8.9954 30.8938 8.31894 36.9201C7.4046 36.6416 6.54974 36.2394 5.83611 35.7133C5.33806 35.3497 4.63929 35.4735 4.28991 35.9918C3.9331 36.5101 4.05947 37.2373 4.55752 37.6009C6.41593 38.9624 8.89876 39.6819 11.3742 39.6819C12.846 39.6819 14.3179 39.4266 15.6485 38.9005C17.9975 37.9722 19.5586 36.309 20.0343 34.2203C20.3465 32.8588 20.4357 30.948 19.0977 29.5787C18.3766 28.8438 17.3954 28.4338 16.3473 28.2326C18.28 27.049 19.4768 25.8964 19.9674 24.736ZM17.5366 31.2265C17.715 31.4121 18.2651 31.9691 17.8711 33.6865C17.4697 35.4658 15.812 36.3631 14.8605 36.7345C13.5299 37.2605 11.9986 37.4462 10.5044 37.3301C10.7497 35.1022 11.1288 32.8201 11.5377 30.7004C12.0655 30.5921 12.8535 30.4606 13.7232 30.4065C15.5519 30.2904 16.9048 30.5844 17.5366 31.2265ZM17.9381 23.7999C17.7596 24.2177 17.0163 25.3549 13.8496 27.0104C13.2474 27.3275 12.6527 27.606 12.125 27.8458C12.7568 24.9526 13.3664 22.6782 13.6117 21.7731C15.7228 21.7112 17.4772 22.0903 17.9752 23.3126C18.0198 23.4209 18.0421 23.5524 17.9381 23.7999Z" fill="white"/>
<path d="M63.6005 36.2712C62.7605 35.6136 62.0914 36.5574 62.0097 36.6734C62.0097 36.6812 62.0022 36.6812 62.0022 36.6889C61.6231 37.2536 61.1771 37.4857 60.8277 37.4161C60.4635 37.3387 60.2776 36.9365 60.3445 36.3872C60.3668 36.1938 60.3966 35.9695 60.4337 35.7296C60.575 34.7317 60.7608 33.3702 60.6419 32.1866C60.4189 29.858 59.0883 29.3011 58.3152 29.1695C56.4493 28.8678 54.7322 30.3377 53.2008 33.5404C53.1934 33.0375 53.1934 32.5192 53.1934 31.9932C53.5428 31.4826 53.8922 30.9488 54.2341 30.415C55.9067 27.8235 57.4529 25.0927 57.7725 23.7621C58.3895 21.1706 57.5421 19.8864 56.9771 19.3449C56.2412 18.6409 55.2079 18.4398 54.2118 18.7956C52.9184 19.2598 51.9892 20.5285 51.7215 22.1762C51.3127 24.7136 51.1566 28.1175 51.1269 31.2815C51.1046 31.3201 51.0823 31.3511 51.0525 31.3898C49.7888 33.2 48.5846 34.7704 47.5587 35.923C46.5849 37.0138 45.9976 37.4857 45.678 37.6868C45.507 37.0138 45.2989 35.1881 45.7969 30.4382C45.8044 30.3454 45.8118 30.2603 45.8267 30.1675C47.2837 29.5099 48.7035 28.5429 49.6327 27.0963C49.9523 26.6012 49.826 25.9282 49.3502 25.5955C48.8745 25.2629 48.2277 25.3944 47.9081 25.8895C47.4621 26.578 46.8451 27.135 46.1463 27.5759C46.4362 25.3634 46.7261 23.7002 46.7261 23.677C46.8302 23.0891 46.4511 22.5321 45.8861 22.4238C45.3212 22.3155 44.786 22.71 44.6819 23.2979C44.6745 23.3289 44.2656 25.7193 43.9162 28.6048C42.0132 29.2392 40.2515 29.3475 40.2217 29.3475H40.2143C40.192 29.3475 40.1623 29.3552 40.1399 29.3552C40.1251 29.3552 40.1177 29.3552 40.1102 29.3552C40.0879 29.3552 40.0731 29.3629 40.0508 29.3707C40.0359 29.3707 40.021 29.3784 40.0061 29.3784C39.9913 29.3784 39.9838 29.3862 39.969 29.3939C39.9467 29.4016 39.9318 29.4094 39.9095 29.4171C39.9021 29.4171 39.8946 29.4248 39.8872 29.4326C39.8649 29.4403 39.8426 29.4558 39.8203 29.4635C39.8203 29.4635 39.8203 29.4635 39.8129 29.4635C39.8054 29.4712 39.798 29.4712 39.7906 29.479C39.7683 29.4945 39.7534 29.5022 39.7311 29.5177C39.7162 29.5254 39.7088 29.5331 39.6939 29.5409C39.6791 29.5486 39.6642 29.5641 39.6493 29.5718C39.6345 29.5873 39.6196 29.595 39.6047 29.6105C39.5973 29.6182 39.5824 29.6337 39.575 29.6414C39.5601 29.6569 39.5453 29.6724 39.5304 29.6879C39.523 29.6956 39.5155 29.7111 39.5007 29.7188C39.4858 29.7343 39.4784 29.7497 39.4635 29.7652C39.4561 29.7807 39.4486 29.7884 39.4412 29.8039C39.4263 29.8194 39.4189 29.8348 39.4115 29.8503C39.404 29.8658 39.3966 29.8735 39.3892 29.889C39.3817 29.9045 39.3743 29.9199 39.3669 29.9354C39.3594 29.9509 39.352 29.9663 39.3446 29.9896C39.3371 30.005 39.3297 30.0128 39.3297 30.0282C39.3223 30.0437 39.3148 30.0669 39.3074 30.0824C39.3 30.0979 39.3 30.1056 39.2925 30.1211C39.2851 30.1443 39.2777 30.1598 39.2777 30.183C39.2777 30.1984 39.2702 30.2139 39.2702 30.2294C39.2702 30.2448 39.2628 30.2681 39.2628 30.2835C39.2628 30.299 39.2628 30.3222 39.2554 30.3377C39.2554 30.3532 39.2553 30.3686 39.2479 30.3841V30.4537C39.2479 30.4615 39.2479 30.4692 39.2479 30.4769V30.4847C39.2479 30.5079 39.2479 30.5311 39.2554 30.5543C39.2554 30.5698 39.2554 30.5775 39.2554 30.593C39.2554 30.6162 39.2628 30.6316 39.2702 30.6471C39.2702 30.6626 39.2776 30.6781 39.2851 30.6935C39.2851 30.709 39.2925 30.7245 39.3 30.7322C39.3074 30.7554 39.3148 30.7709 39.3223 30.7941C39.3297 30.8018 39.3297 30.8173 39.3371 30.825C39.3446 30.8482 39.352 30.8715 39.3669 30.8947C39.3669 30.9024 39.3669 30.9024 39.3743 30.9101C39.7683 31.7224 39.9467 32.7745 39.8723 33.8653C39.7906 35.0102 39.4338 36.0932 38.8911 36.8359C38.6309 37.1995 38.0808 37.7951 37.4044 37.741C36.7279 37.6868 36.267 37.0215 36.0589 36.627C35.6203 35.807 35.4122 34.6853 35.4939 33.5404C35.6054 31.9235 36.2522 30.5001 37.1442 29.9045C37.6274 29.5796 37.7686 28.9143 37.4564 28.4114C37.1442 27.9086 36.5049 27.7616 36.0217 28.0865C34.7877 28.9065 33.8808 30.5001 33.5389 32.3877C32.9591 34.0277 32.0819 35.1804 31.1378 35.9772C31.6433 34.7936 31.9853 33.4166 32.0893 31.9081C32.238 29.7265 31.8663 27.6301 31.0338 25.9901C30.1194 24.1876 28.7591 23.1278 27.2054 23.0117C24.1428 22.7874 21.4816 26.3304 21.1545 31.0958C20.8274 35.8225 22.9385 39.6982 25.9715 39.9844C25.9789 39.9844 25.9863 39.9844 25.9938 39.9844C26.0086 39.9844 26.0235 39.9922 26.0384 39.9922C26.0532 39.9922 26.0607 39.9922 26.0681 39.9922C26.0755 39.9922 26.0755 39.9922 26.083 39.9922H26.1127C26.1796 39.9999 26.2465 39.9999 26.3134 39.9999C26.4175 39.9999 26.5141 39.9999 26.6108 39.9844C26.7148 39.9767 26.8115 39.9612 26.9081 39.9457C26.9304 39.9457 26.9527 39.9457 26.975 39.938C27.6812 39.8607 28.7293 39.675 29.8741 39.2031C31.0561 38.7157 32.4908 37.857 33.7024 36.3563C33.8362 36.8281 34.0146 37.2691 34.2302 37.6791C34.9364 39.002 36.0366 39.8065 37.2408 39.8993C37.3152 39.9071 37.3895 39.9071 37.4638 39.9071C38.5863 39.9071 39.6939 39.2727 40.5191 38.1433C41.3145 37.0525 41.8125 35.5904 41.924 34.02C41.9909 33.0994 41.9092 32.1866 41.7084 31.3511C42.2585 31.266 42.935 31.1345 43.6709 30.9333C43.0911 36.9829 43.6412 38.6229 44.1913 39.3656C44.5704 39.8839 45.1651 40.0927 45.8267 39.9535C47.0235 39.6905 48.8224 37.9808 51.1715 34.8555C51.2086 36.5806 51.2755 38.0504 51.3424 39.002C51.3796 39.528 51.7736 39.9535 52.2791 39.9999C52.3162 39.9999 52.346 39.9999 52.3757 39.9999C52.8366 39.9999 53.2529 39.675 53.3792 39.2031C53.3867 39.1799 53.9665 36.9365 54.9403 34.8091C56.0107 32.4728 57.1629 31.1577 58.0252 31.2969C58.1962 31.3279 58.5084 31.3743 58.6125 32.3954C58.7017 33.316 58.5382 34.4764 58.4118 35.4125C58.3746 35.6678 58.3449 35.8998 58.3152 36.1164C58.1219 37.7797 59.0139 39.2186 60.4412 39.528C61.2812 39.7137 62.1509 39.4739 62.8943 38.8704C63.1173 38.6925 63.3254 38.4837 63.5113 38.2361C63.5113 38.2361 63.5113 38.2361 63.5113 38.2284C63.5484 38.1433 64.4999 36.9751 63.6005 36.2712ZM53.7584 22.5398C53.9219 21.5264 54.4422 20.9926 54.8808 20.8379C54.9552 20.8147 55.0592 20.7838 55.1707 20.7838C55.3046 20.7838 55.4458 20.8224 55.5722 20.9385C55.8621 21.2092 56.0628 21.9596 55.758 23.2438C55.6539 23.7002 55.2153 24.6285 54.5389 25.8508C54.1821 26.4929 53.7584 27.2201 53.2752 28.0014C53.3495 26.021 53.5056 24.1025 53.7584 22.5398ZM29.9856 31.7688C29.8667 33.5481 29.3463 35.1804 28.5212 36.3563C28.1644 36.8746 27.4656 37.6791 26.5736 37.8338C26.358 37.8493 26.2019 37.8493 26.135 37.8493C25.0497 37.7565 24.3435 36.6657 24.009 36.0236C23.3623 34.7394 23.0649 33.0453 23.1913 31.266C23.3177 29.4867 23.8306 27.8544 24.6557 26.6786C25.0571 26.1061 25.86 25.1778 26.8932 25.1778C26.9378 25.1778 26.975 25.1778 27.0196 25.1855C28.1198 25.2629 28.8334 26.3691 29.1605 27.0189C29.8146 28.2954 30.1046 29.9818 29.9856 31.7688Z" fill="white"/>
<path d="M3.40877 14.5331C3.3716 14.4789 3.33442 14.4324 3.30469 14.3782C3.34186 14.4246 3.37903 14.4789 3.40877 14.5331Z" fill="#202020"/>
<path d="M2.00293 13.7988C1.95089 13.6287 1.75016 13.5745 1.62377 13.6983C0.910076 14.4487 0.114601 15.5085 0.01052 16.6844C-0.0489549 17.3574 0.144337 17.984 0.575529 18.4868C1.07363 19.0748 1.73529 19.392 2.48616 19.3997H2.50846C3.65335 19.3997 4.77594 18.7112 5.62346 18.0227C5.75728 17.9144 5.73497 17.6978 5.57885 17.6204C4.75364 17.2104 2.61998 15.9727 2.00293 13.7988Z" fill="#FF3875"/>
</svg>
